<svg id="Laag_1" data-name="Laag 1" xmlns="http://www.w3.org/2000/svg" viewBox="0 0 15.16 8.4">
  <defs>
    <style>
      .cls-1 {
        fill: #706f6f;
      }

      .cls-2 {
        fill: #de9254;
      }
    </style>
  </defs>
  <title>logo</title>
  <path class="cls-1" d="M11.79,0c1.88,0,3.08.82,3.08,2.1a1.88,1.88,0,0,1-1.44,1.85,2.07,2.07,0,0,1,1.73,2.12c0,1.43-1.25,2.33-3.23,2.33H7.82V0ZM9.94,3.36h1.73c.62,0,1-.34,1-.88s-.4-.85-1-.85H9.94Zm0,3.39h1.73c.79,0,1.28-.35,1.28-.95s-.49-.91-1.28-.91H9.94Z"/>
  <path class="cls-2" d="M3.44,8.4H1.19l3-6.7H0V0H6.54V1.45Z"/>
</svg>
